<svg height="512pt" viewBox="0 0 512 512" width="512pt" xmlns="http://www.w3.org/2000/svg"><path d="m332.039062 456.238281v-94.152343l-81.132812-47.074219-81.132812 47.074219v94.152343l81.132812 47.078125zm0 0" fill="#f7e0ba"/><path d="m494.300781 456.238281v-94.152343l-81.132812-47.074219-81.128907 47.074219v94.152343l81.128907 47.078125zm0 0" fill="#f7e0ba"/><path d="m169.773438 456.238281v-94.152343l-81.128907-47.074219-81.132812 47.074219v94.152343l81.132812 47.078125zm0 0" fill="#f7e0ba"/><path d="m169.773438 173.78125v-94.152344l-81.128907-47.078125-81.132812 47.078125v94.152344l81.132812 47.078125zm0 0" fill="#f7e0ba"/><path d="m250.90625 315.011719v-94.152344l-81.132812-47.078125-81.128907 47.078125v94.152344l81.128907 47.074219zm0 0" fill="#f7e0ba"/><path d="m504.316406 42.570312c0 19.359376-15.695312 35.054688-35.054687 35.054688-19.363281 0-35.058594-15.695312-35.058594-35.054688 0-19.363281 15.695313-35.058593 35.058594-35.058593 19.359375 0 35.054687 15.695312 35.054687 35.058593zm0 0" fill="#9ce3bf"/><path d="m279.953125 88.644531c0 19.359375-15.695313 35.054688-35.054687 35.054688-19.363282 0-35.058594-15.695313-35.058594-35.054688 0-19.363281 15.695312-35.058593 35.058594-35.058593 19.359374 0 35.054687 15.695312 35.054687 35.058593zm0 0" fill="#9ce3bf"/><path d="m354.074219 232.878906c0 19.359375-15.695313 35.054688-35.058594 35.054688-19.359375 0-35.054687-15.695313-35.054687-35.054688 0-19.363281 15.695312-35.058594 35.054687-35.058594 19.363281 0 35.058594 15.695313 35.058594 35.058594zm0 0" fill="#9ce3bf"/><path d="m435.203125 124.703125c0 30.421875-24.664063 55.089844-55.085937 55.089844-30.425782 0-55.089844-24.667969-55.089844-55.089844 0-30.425781 24.664062-55.089844 55.089844-55.089844 30.421874 0 55.085937 24.664063 55.085937 55.089844zm0 0" fill="#96d1f3"/><path d="m469.261719 47.578125c-13.984375 0-26.054688-8.191406-31.679688-20.035156-2.164062 4.554687-3.378906 9.648437-3.378906 15.027343 0 19.359376 15.695313 35.054688 35.058594 35.054688 19.359375 0 35.054687-15.695312 35.054687-35.054688 0-5.378906-1.214844-10.472656-3.378906-15.027343-5.625 11.84375-17.691406 20.035156-31.675781 20.035156zm0 0" fill="#7bdaa9"/><path d="m244.898438 93.652344c-13.984376 0-26.054688-8.191406-31.679688-20.03125-2.164062 4.550781-3.378906 9.644531-3.378906 15.023437 0 19.359375 15.695312 35.054688 35.058594 35.054688 19.359374 0 35.054687-15.695313 35.054687-35.054688 0-5.378906-1.214844-10.472656-3.378906-15.023437-5.625 11.839844-17.691407 20.03125-31.675781 20.03125zm0 0" fill="#7bdaa9"/><path d="m319.015625 237.886719c-13.984375 0-26.050781-8.191407-31.675781-20.035157-2.164063 4.554688-3.378906 9.648438-3.378906 15.027344 0 19.359375 15.695312 35.054688 35.054687 35.054688 19.363281 0 35.058594-15.695313 35.058594-35.054688 0-5.378906-1.214844-10.472656-3.378907-15.027344-5.625 11.84375-17.695312 20.035157-31.679687 20.035157zm0 0" fill="#7bdaa9"/><path d="m380.117188 149.742188c-25.214844 0-46.457032-16.945313-53-40.066407-1.351563 4.78125-2.089844 9.816407-2.089844 15.027344 0 30.425781 24.664062 55.089844 55.089844 55.089844 30.421874 0 55.085937-24.664063 55.085937-55.089844 0-5.210937-.738281-10.246094-2.089844-15.027344-6.542969 23.121094-27.78125 40.066407-52.996093 40.066407zm0 0" fill="#73c1ef"/><path d="m139.726562 62.195312v95.058594l-80.347656 46.621094 29.265625 16.984375 81.128907-47.078125v-94.152344zm0 0" fill="#f5cc89"/><path d="m220.859375 203.421875v95.0625l-80.351563 46.621094 29.265626 16.980469 81.132812-47.074219v-94.152344zm0 0" fill="#f5cc89"/><path d="m139.726562 344.652344v95.058594l-80.347656 46.621093 29.265625 16.984375 81.128907-47.078125v-94.152343zm0 0" fill="#f5cc89"/><path d="m301.988281 344.652344v95.058594l-80.347656 46.621093 29.265625 16.984375 81.132812-47.078125v-94.152343zm0 0" fill="#f5cc89"/><path d="m464.25 344.652344v95.058594l-80.347656 46.621093 29.265625 16.984375 81.132812-47.078125v-94.152343zm0 0" fill="#f5cc89"/><path d="m457 349.128906 29.789062 17.285156v85.5l-73.621093 42.714844-73.617188-42.714844v-85.5l73.617188-42.71875 30.835937 17.894532 7.542969-12.996094-38.378906-22.269531-81.128907 47.078125-73.621093-42.71875v-94.152344l-34.929688-20.269531-7.539062 12.996093 27.445312 15.925782v85.5l-73.621093 42.71875-73.617188-42.71875v-85.5l73.617188-42.71875 33.179687 19.253906 7.539063-12.996094-33.207032-19.269531v-94.148437l-88.640625-51.4375-88.644531 51.4375v43.089843h15.023438v-34.441406l73.621093-42.714844 73.617188 42.714844v85.503906l-73.617188 42.714844-73.621093-42.714844v-36.039062h-15.023438v44.6875l81.132812 47.078125v85.5l-81.132812 47.078125v102.804687l33.808594 19.613282 7.539062-12.992188-26.324218-15.273438v-85.5l73.621093-42.71875 73.617188 42.71875v85.5l-73.617188 42.714844-34.300781-19.902344-7.539062 12.996094 41.839843 24.277344 81.128907-47.078125 32.875 19.078125 7.539062-12.996094-32.902344-19.09375v-85.496094l73.621094-42.71875 73.621094 42.71875v85.496094l-73.621094 42.71875-27.722656-16.085937-7.539063 12.996093 35.261719 20.460938 81.132812-47.078125 81.128907 47.078125 88.644531-51.433594v-102.804687l-37.269531-21.628907zm0 0"/><path d="m244.898438 131.210938c17.1875 0 32.019531-10.246094 38.734374-24.949219l34.714844 8.300781c-.539062 3.304688-.832031 6.6875-.832031 10.140625 0 21.644531 11.042969 40.753906 27.789063 52.003906l-11.929688 16.101563c-4.488281-1.613282-9.320312-2.5-14.359375-2.5-23.472656 0-42.566406 19.097656-42.566406 42.570312s19.09375 42.566406 42.566406 42.566406 42.570313-19.09375 42.570313-42.566406c0-13.019531-5.882813-24.6875-15.117188-32.5l12.429688-16.785156c6.628906 2.398438 13.773437 3.710938 21.21875 3.710938 34.515624 0 62.601562-28.082032 62.601562-62.601563 0-12.15625-3.496094-23.503906-9.515625-33.117187l13.894531-12.6875c6.460938 3.957031 14.050782 6.238281 22.164063 6.238281 23.472656 0 42.566406-19.09375 42.566406-42.566407 0-23.472656-19.09375-42.570312-42.566406-42.570312-23.476563 0-42.570313 19.097656-42.570313 42.570312 0 9.914063 3.417969 19.042969 9.125 26.285157l-12.066406 11.015625c-11.285156-10.984375-26.679688-17.769532-43.632812-17.769532-25.796876 0-47.996094 15.683594-57.566407 38.019532l-35.207031-8.417969c.074219-1.011719.121094-2.03125.121094-3.058594 0-23.472656-19.09375-42.570312-42.566406-42.570312-23.472657 0-42.570313 19.097656-42.570313 42.570312 0 23.472657 19.097656 42.566407 42.570313 42.566407zm224.363281-116.1875c15.1875 0 27.542969 12.359374 27.542969 27.546874s-12.355469 27.542969-27.542969 27.542969c-15.191407 0-27.546875-12.355469-27.546875-27.542969s12.355468-27.546874 27.546875-27.546874zm-122.699219 217.855468c0 15.1875-12.355469 27.542969-27.546875 27.542969-15.1875 0-27.542969-12.355469-27.542969-27.542969s12.355469-27.546875 27.542969-27.546875c15.191406 0 27.546875 12.359375 27.546875 27.546875zm33.554688-155.753906c26.230468 0 47.574218 21.34375 47.574218 47.578125 0 26.230469-21.34375 47.574219-47.574218 47.574219-26.234376 0-47.578126-21.34375-47.578126-47.574219 0-26.234375 21.34375-47.578125 47.578126-47.578125zm-135.21875-16.027344c15.1875 0 27.542968 12.359375 27.542968 27.546875s-12.355468 27.542969-27.542968 27.542969c-15.191407 0-27.546876-12.355469-27.546876-27.542969s12.355469-27.546875 27.546876-27.546875zm0 0"/><g fill="#fff"><path d="m250.90625 477.257812-28.863281-16.746093 7.539062-12.996094 21.324219 12.371094 47.3125-27.453125 7.539062 12.996094zm-41.859375-24.285156-12.992187-7.542968 7.539062-12.996094 12.996094 7.542968zm0 0"/><path d="m471.765625 438.933594h-15.027344v-55.214844l-21.347656-12.386719 7.539063-12.996093 28.835937 16.730468zm-49.371094-75.144532-12.996093-7.539062 7.539062-12.996094 12.996094 7.539063zm0 0"/><path d="m84.875 475.070312-12.996094-7.539062 7.539063-12.996094 12.996093 7.539063zm-25.992188-15.078124-25.09375-14.5625 7.542969-12.996094 25.089844 14.5625zm0 0"/><path d="m45.074219 156.476562h-15.027344v-15.023437h15.027344zm0-30.050781h-15.027344v-29.492187h15.027344zm0 0"/><path d="m228.371094 297.703125h-15.027344v-55.214844l-21.347656-12.386719 7.539062-12.996093 28.835938 16.730469zm-49.371094-75.144531-12.996094-7.539063 7.542969-12.996093 12.992187 7.539062zm0 0"/><path d="m412.667969 124.703125h-15.023438c0-9.664063-7.863281-17.53125-17.527343-17.53125v-15.023437c17.949218 0 32.550781 14.601562 32.550781 32.554687zm0 0"/></g></svg>